<svg width="287" height="181" viewBox="0 0 287 181" fill="none" xmlns="http://www.w3.org/2000/svg">
<g clip-path="url(#clip0_110_224)">
<path d="M195.675 153.564L195.722 153.574C196.631 153.763 197.567 153.794 198.487 153.666L198.428 153.672C199.324 153.548 200.174 153.196 200.897 152.651L200.902 152.645C201.602 152.132 202.124 151.363 202.315 150.441L202.33 150.369L202.329 150.372C202.575 149.155 202.333 147.89 201.654 146.85C200.986 145.729 200.072 144.775 198.98 144.06L198.927 144.028C197.898 143.341 196.749 142.853 195.54 142.59L195.534 142.589L195.488 142.579C194.552 142.385 193.619 142.362 192.723 142.487L192.782 142.481C191.886 142.605 191.036 142.957 190.313 143.502L190.307 143.507C189.556 144.059 189.045 144.877 188.878 145.794L188.879 145.79C188.631 147.007 188.874 148.273 189.554 149.312C190.224 150.424 191.135 151.371 192.219 152.083L192.272 152.115C193.232 152.767 194.399 153.277 195.673 153.555L195.677 153.556L195.675 153.564ZM208.666 147.893L208.792 147.921C209.92 148.157 211.093 148.037 212.15 147.577L212.13 147.585C212.619 147.377 213.05 147.054 213.388 146.642C213.725 146.231 213.958 145.744 214.066 145.224L214.094 145.075L214.092 145.082C214.335 143.849 214.116 142.57 213.478 141.487L213.481 141.493C212.853 140.352 211.993 139.356 210.955 138.569C209.918 137.783 208.727 137.223 207.459 136.927L207.447 136.924L207.325 136.897C206.147 136.653 204.978 136.795 203.952 137.238L203.972 137.23C203.457 137.445 203.004 137.788 202.658 138.227C202.313 138.666 202.084 139.186 201.996 139.738L201.997 139.73C201.755 140.963 201.974 142.243 202.612 143.325L202.608 143.319C203.241 144.463 204.106 145.46 205.148 146.248C206.191 147.036 207.387 147.595 208.659 147.891L208.669 147.894L208.666 147.893ZM206.112 157.01C205.776 159.226 206.143 161.492 207.162 163.488L207.15 163.464C208.201 165.867 209.683 168.057 211.523 169.927L211.589 169.991C213.048 171.634 214.956 172.814 217.077 173.384L217.107 173.392L217.237 173.422C217.843 173.548 218.447 173.518 219.004 173.36L218.983 173.365C219.496 173.209 219.945 172.891 220.264 172.46L220.274 172.446C220.573 172.053 220.842 171.578 221.044 171.065L221.056 171.03C221.259 170.494 221.418 169.943 221.533 169.382L221.556 169.269L221.555 169.275C221.774 167.707 221.721 166.113 221.398 164.564L221.414 164.658C221.108 163.194 221.05 161.689 221.242 160.206L221.249 160.159C221.716 158.529 222.406 157.072 223.286 155.767L223.229 155.86C224.135 154.497 224.814 152.996 225.239 151.416L225.249 151.374C225.847 148.506 225.005 146.836 222.724 146.362C221.112 146.094 219.459 146.231 217.912 146.759L217.962 146.742C216.129 147.278 214.379 148.065 212.762 149.082L212.769 149.077C211.183 150.07 209.746 151.284 208.501 152.682L208.432 152.764C207.305 153.945 206.505 155.4 206.114 156.985L206.11 157.003L206.112 157.01ZM200.001 161.589L200.015 161.52C200.2 160.635 200.05 159.713 199.595 158.932L199.597 158.935C199.159 158.154 198.53 157.498 197.768 157.027L197.735 157.008C196.958 156.535 196.105 156.201 195.214 156.019L195.164 156.009L195.167 156.009C193.882 155.756 192.61 155.76 191.399 155.986L191.47 155.975C190.172 156.191 188.94 156.698 187.866 157.46L187.86 157.465C186.824 158.148 186.098 159.211 185.839 160.426L185.825 160.496C185.633 161.418 185.807 162.331 186.245 163.084L186.243 163.081C186.681 163.858 187.304 164.516 188.072 164.989L188.105 165.008C188.829 165.458 189.699 165.811 190.641 166.007L190.671 166.013L190.67 166.013C191.909 166.257 193.184 166.264 194.426 166.034L194.355 166.044C195.66 165.829 196.898 165.317 197.973 164.547L197.98 164.542C199.015 163.857 199.739 162.794 199.998 161.58L199.998 161.579L200.001 161.589ZM195.459 171.215L195.428 171.353C195.2 172.45 195.548 173.532 196.266 174.286L196.275 174.296C197.064 175.132 198.092 175.705 199.219 175.936L199.348 175.961L199.342 175.96C200.622 176.195 201.936 176.158 203.201 175.852C204.465 175.546 205.652 174.977 206.682 174.183L206.695 174.173C207.708 173.435 208.416 172.351 208.685 171.127L208.685 171.124C208.822 170.587 208.821 170.024 208.682 169.488C208.544 168.951 208.271 168.459 207.891 168.056L207.882 168.046C207.067 167.177 205.994 166.594 204.822 166.383L204.828 166.384C203.544 166.148 202.225 166.183 200.955 166.488C199.686 166.793 198.494 167.361 197.458 168.156L197.445 168.166C196.435 168.903 195.729 169.984 195.46 171.206L195.459 171.209L195.459 171.215Z" fill="#EBA956"/>
</g>
<g clip-path="url(#clip1_110_224)">
<path d="M265.756 133.462L265.796 133.488C266.579 133.988 267.442 134.35 268.348 134.557L268.29 134.542C269.172 134.744 270.092 134.718 270.961 134.465L270.968 134.462C271.805 134.231 272.565 133.698 273.072 132.904L273.112 132.842L273.11 132.845C273.773 131.794 273.996 130.526 273.732 129.312C273.506 128.027 272.99 126.81 272.224 125.754L272.186 125.706C271.468 124.698 270.568 123.833 269.532 123.157L269.527 123.154L269.487 123.129C268.681 122.614 267.817 122.261 266.935 122.059L266.993 122.074C266.11 121.872 265.191 121.899 264.322 122.151L264.315 122.154C263.417 122.403 262.648 122.985 262.165 123.783L262.168 123.779C261.504 124.829 261.28 126.098 261.546 127.311C261.777 128.589 262.292 129.798 263.052 130.849L263.091 130.897C263.756 131.848 264.665 132.74 265.756 133.453L265.76 133.456L265.756 133.462ZM279.914 132.781L280.022 132.851C280.992 133.473 282.132 133.778 283.283 133.724L283.261 133.725C283.792 133.704 284.311 133.555 284.772 133.291C285.233 133.026 285.624 132.654 285.911 132.206L285.99 132.076L285.986 132.083C286.65 131.016 286.901 129.743 286.689 128.505L286.69 128.511C286.509 127.221 286.059 125.985 285.369 124.88C284.679 123.776 283.765 122.83 282.686 122.102L282.675 122.095L282.57 122.027C281.556 121.379 280.413 121.097 279.296 121.146L279.319 121.145C278.76 121.163 278.215 121.323 277.736 121.61C277.257 121.898 276.859 122.302 276.579 122.787L276.583 122.78C275.919 123.847 275.668 125.12 275.88 126.358L275.879 126.352C276.063 127.646 276.517 128.886 277.211 129.993C277.905 131.099 278.824 132.048 279.908 132.777L279.917 132.783L279.914 132.781ZM274.285 140.394C273.183 142.346 272.721 144.594 272.963 146.822L272.961 146.795C273.089 149.415 273.695 151.989 274.75 154.39L274.789 154.474C275.568 156.528 276.932 158.309 278.712 159.597L278.737 159.614L278.847 159.689C279.369 160.022 279.944 160.209 280.521 160.259L280.5 160.256C281.035 160.293 281.568 160.156 282.019 159.866L282.033 159.857C282.453 159.595 282.873 159.247 283.244 158.84L283.268 158.812C283.647 158.383 283.993 157.924 284.3 157.44L284.362 157.344L284.358 157.349C285.12 155.961 285.637 154.452 285.886 152.889L285.868 152.983C286.103 151.506 286.583 150.079 287.29 148.761L287.313 148.719C288.329 147.362 289.493 146.246 290.779 145.339L290.693 145.406C292.024 144.454 293.192 143.292 294.151 141.966L294.176 141.931C295.754 139.463 295.562 137.602 293.598 136.348C292.186 135.525 290.592 135.065 288.959 135.008L289.012 135.011C287.108 134.859 285.193 134.973 283.32 135.349L283.328 135.347C281.493 135.71 279.718 136.334 278.057 137.198L277.963 137.251C276.49 137.953 275.225 139.029 274.296 140.371L274.286 140.387L274.285 140.394ZM266.945 142.501L266.983 142.441C267.471 141.68 267.659 140.765 267.511 139.873L267.512 139.877C267.38 138.991 267.025 138.154 266.481 137.443L266.456 137.413C265.898 136.695 265.22 136.079 264.452 135.592L264.409 135.565L264.412 135.567C263.3 134.873 262.111 134.425 260.898 134.205L260.968 134.221C259.678 133.961 258.346 133.997 257.072 134.326L257.064 134.329C255.853 134.599 254.796 135.335 254.123 136.378L254.084 136.439C253.578 137.232 253.415 138.147 253.557 139.007L253.556 139.003C253.689 139.885 254.038 140.722 254.587 141.437L254.611 141.467C255.128 142.144 255.816 142.784 256.627 143.302L256.652 143.318L256.651 143.317C257.723 143.986 258.912 144.446 260.155 144.673L260.085 144.657C261.38 144.92 262.72 144.882 263.998 144.544L264.007 144.542C265.217 144.27 266.272 143.534 266.946 142.492L266.946 142.49L266.945 142.501ZM259.278 149.883L259.199 150C258.596 150.945 258.537 152.08 258.94 153.04L258.945 153.052C259.385 154.115 260.142 155.016 261.113 155.632L261.225 155.702L261.22 155.699C262.332 156.373 263.574 156.806 264.865 156.97C266.156 157.133 267.466 157.023 268.712 156.647L268.728 156.642C269.937 156.313 270.984 155.552 271.671 154.503L271.672 154.5C271.991 154.047 272.19 153.521 272.251 152.97C272.312 152.419 272.233 151.862 272.02 151.35L272.016 151.338C271.563 150.236 270.767 149.31 269.747 148.696L269.752 148.699C268.636 148.021 267.391 147.585 266.096 147.419C264.801 147.253 263.485 147.36 262.234 147.734L262.218 147.739C261.012 148.069 259.967 148.828 259.282 149.874L259.28 149.877L259.278 149.883Z" fill="#EBA956"/>
</g>
<g clip-path="url(#clip2_110_224)">
<path d="M198.655 66.1034L198.688 66.1376C199.333 66.8058 200.089 67.3576 200.922 67.7687L200.87 67.7407C201.681 68.1418 202.582 68.3289 203.486 68.2844L203.494 68.2834C204.361 68.2521 205.224 67.9097 205.901 67.2552L205.954 67.204L205.952 67.2062C206.84 66.3376 207.351 65.1551 207.374 63.9137C207.452 62.611 207.233 61.3078 206.732 60.1028L206.706 60.0471C206.242 58.9003 205.566 57.8509 204.714 56.9534L204.71 56.949L204.677 56.9148C204.012 56.2275 203.254 55.684 202.442 55.2837L202.495 55.3117C201.684 54.9106 200.783 54.7235 199.879 54.768L199.871 54.769C198.94 54.8028 198.057 55.1917 197.403 55.8558L197.406 55.8526C196.517 56.7201 196.006 57.9033 195.984 59.1451C195.913 60.4411 196.133 61.7363 196.629 62.9354L196.656 62.9911C197.083 64.0702 197.76 65.1479 198.657 66.0948L198.66 66.0981L198.655 66.1034ZM212.586 68.7197L212.674 68.8133C213.474 69.6428 214.512 70.2034 215.644 70.4175L215.623 70.4128C216.144 70.5158 216.683 70.4911 217.193 70.3407C217.703 70.1903 218.17 69.9188 218.552 69.5492L218.659 69.4415L218.654 69.4468C219.547 68.5632 220.086 67.3825 220.167 66.1287L220.167 66.1352C220.289 64.8388 220.137 63.5312 219.722 62.2974C219.306 61.0636 218.636 59.931 217.755 58.973L217.746 58.9642L217.66 58.8728C216.824 58.0082 215.777 57.4686 214.679 57.2577L214.701 57.2623C214.154 57.1503 213.587 57.1799 213.054 57.3484C212.521 57.5168 212.04 57.8185 211.656 58.2248L211.662 58.2195C210.768 59.1031 210.23 60.2838 210.149 61.5376L210.149 61.5311C210.029 62.8322 210.183 64.1439 210.602 65.3812C211.021 66.6186 211.695 67.754 212.581 68.7142L212.588 68.7219L212.586 68.7197ZM205.347 74.8219C203.823 76.4658 202.852 78.5459 202.572 80.7695L202.576 80.7425C202.094 83.3209 202.087 85.9655 202.557 88.5456L202.576 88.6359C202.858 90.815 203.772 92.8634 205.206 94.528L205.226 94.5511L205.316 94.649C205.747 95.094 206.263 95.4092 206.812 95.5917L206.792 95.5837C207.304 95.7431 207.854 95.7335 208.361 95.5563L208.376 95.5501C208.845 95.393 209.335 95.1517 209.79 94.8416L209.819 94.8193C210.288 94.49 210.73 94.1239 211.141 93.7245L211.224 93.6446L211.219 93.6488C212.282 92.4755 213.134 91.1275 213.739 89.6643L213.699 89.7515C214.269 88.369 215.067 87.092 216.06 85.9736L216.092 85.9384C217.395 84.853 218.786 84.0368 220.247 83.4527L220.148 83.4976C221.663 82.88 223.068 82.0204 224.309 80.9525L224.341 80.9237C226.448 78.8886 226.691 77.0336 225.071 75.3588C223.888 74.2313 222.445 73.4144 220.869 72.981L220.92 72.996C219.103 72.4077 217.213 72.0747 215.304 72.0064L215.313 72.0065C213.443 71.9352 211.572 72.1304 209.756 72.5864L209.653 72.6162C208.057 72.9583 206.577 73.712 205.362 74.8026L205.349 74.8154L205.347 74.8219ZM197.718 75.1716L197.769 75.1226C198.42 74.4947 198.814 73.648 198.877 72.7463L198.877 72.7506C198.954 71.8584 198.803 70.9615 198.438 70.1441L198.421 70.1091C198.044 69.2817 197.527 68.5255 196.893 67.8739L196.857 67.8375L196.86 67.8397C195.939 66.9076 194.885 66.1955 193.757 65.7012L193.821 65.7326C192.627 65.1808 191.322 64.9074 190.006 64.933L189.999 64.9339C188.758 64.9159 187.559 65.3873 186.663 66.2461L186.611 66.2962C185.934 66.9507 185.564 67.8031 185.503 68.6725L185.503 68.6681C185.428 69.5568 185.574 70.4524 185.942 71.2747L185.959 71.3096C186.305 72.0882 186.826 72.8696 187.495 73.5612L187.516 73.5833L187.515 73.5822C188.403 74.481 189.453 75.2036 190.609 75.7119L190.545 75.6805C191.744 76.2369 193.056 76.5095 194.378 76.4772L194.387 76.4773C195.627 76.4929 196.824 76.0209 197.721 75.163L197.722 75.1619L197.718 75.1716ZM188.55 80.5776L188.446 80.6735C187.641 81.4526 187.32 82.5433 187.49 83.5704L187.492 83.5834C187.674 84.7192 188.202 85.771 189.004 86.5956L189.096 86.6892L189.092 86.6848C190.018 87.5987 191.126 88.3075 192.344 88.7654C193.562 89.2233 194.862 89.4199 196.161 89.3426L196.177 89.3418C197.43 89.3013 198.625 88.8034 199.535 87.9421L199.538 87.94C199.953 87.573 200.269 87.1069 200.455 86.5852C200.642 86.0635 200.694 85.503 200.606 84.9561L200.604 84.943C200.419 83.7663 199.86 82.6808 199.009 81.8471L199.013 81.8515C198.085 80.9338 196.974 80.2211 195.753 79.7595C194.531 79.2979 193.227 79.0977 191.923 79.1718L191.907 79.1726C190.657 79.2142 189.465 79.7112 188.555 80.5701L188.553 80.5723L188.55 80.5776Z" fill="#EBA956"/>
</g>
<g clip-path="url(#clip3_110_224)">
<path d="M127.659 97.7606L127.697 97.7883C128.451 98.3316 129.293 98.7406 130.186 98.9975L130.129 98.9793C130.999 99.2301 131.918 99.2547 132.8 99.0505L132.807 99.0482C133.656 98.8636 134.445 98.3735 134.995 97.6094L135.038 97.5497L135.036 97.5522C135.755 96.54 136.049 95.2856 135.852 94.0596C135.698 92.7637 135.251 91.5201 134.545 90.423L134.509 90.3728C133.848 89.3265 132.997 88.4136 132 87.6812L131.995 87.6776L131.957 87.6499C131.181 87.0913 130.338 86.6908 129.468 86.4408L129.525 86.459C128.655 86.2081 127.736 86.1836 126.854 86.3877L126.847 86.39C125.936 86.5884 125.136 87.1277 124.61 87.8972L124.613 87.8935C123.891 88.9049 123.598 90.16 123.796 91.3861C123.956 92.6741 124.403 93.9097 125.104 95.0019L125.14 95.0521C125.751 96.0382 126.609 96.9788 127.66 97.7517L127.663 97.7544L127.659 97.7606ZM141.833 97.8656L141.937 97.942C142.871 98.6166 143.992 98.9843 145.144 98.9942L145.122 98.9934C145.654 99.0023 146.18 98.8825 146.655 98.644C147.13 98.4056 147.541 98.0557 147.852 97.6242L147.938 97.4992L147.934 97.5054C148.656 96.4774 148.977 95.2199 148.834 93.9716L148.835 93.978C148.726 92.6804 148.345 91.4205 147.717 90.2798C147.09 89.1392 146.229 88.1434 145.192 87.3569L145.182 87.3497L145.081 87.2751C144.105 86.5724 142.979 86.2269 141.861 86.2139L141.883 86.2147C141.325 86.2015 140.772 86.3312 140.278 86.5914C139.783 86.8517 139.363 87.2339 139.057 87.7018L139.062 87.6956C138.339 88.7236 138.018 89.9811 138.161 91.2294L138.16 91.223C138.273 92.5247 138.657 93.7882 139.289 94.9317C139.921 96.0751 140.785 97.0731 141.827 97.8611L141.836 97.8674L141.833 97.8656ZM135.791 105.154C134.582 107.043 133.996 109.262 134.114 111.5L134.113 111.473C134.096 114.096 134.558 116.699 135.478 119.155L135.513 119.241C136.176 121.335 137.439 123.189 139.145 124.573L139.169 124.593L139.276 124.673C139.778 125.035 140.342 125.253 140.915 125.335L140.894 125.331C141.426 125.397 141.966 125.29 142.433 125.026L142.447 125.017C142.88 124.78 143.32 124.455 143.712 124.069L143.738 124.042C144.141 123.635 144.511 123.196 144.844 122.73L144.911 122.637L144.908 122.642C145.746 121.299 146.346 119.821 146.681 118.274L146.658 118.367C146.973 116.905 147.532 115.507 148.311 114.23L148.337 114.19C149.426 112.891 150.65 111.841 151.985 111.007L151.895 111.069C153.277 110.192 154.508 109.097 155.539 107.826L155.565 107.792C157.278 105.416 157.189 103.547 155.298 102.186C153.934 101.286 152.368 100.738 150.74 100.591L150.793 100.597C148.901 100.34 146.982 100.347 145.091 100.618L145.099 100.617C143.246 100.878 141.44 101.402 139.734 102.173L139.637 102.22C138.127 102.84 136.805 103.844 135.802 105.133L135.792 105.148L135.791 105.154ZM128.345 106.851L128.386 106.794C128.915 106.061 129.154 105.157 129.055 104.259L129.056 104.263C128.974 103.371 128.666 102.515 128.162 101.776L128.139 101.744C127.621 100.997 126.978 100.344 126.238 99.8154L126.197 99.7859L126.2 99.7877C125.128 99.0336 123.965 98.5195 122.767 98.2331L122.836 98.2526C121.563 97.9213 120.23 97.8835 118.94 98.142L118.932 98.1443C117.708 98.3466 116.612 99.023 115.882 100.027L115.84 100.086C115.29 100.85 115.077 101.754 115.171 102.621L115.17 102.616C115.254 103.504 115.556 104.36 116.064 105.104L116.087 105.135C116.565 105.84 117.217 106.517 117.998 107.079L118.023 107.097L118.021 107.096C119.054 107.823 120.216 108.348 121.444 108.643L121.375 108.624C122.654 108.959 123.994 108.994 125.289 108.728L125.298 108.727C126.521 108.522 127.616 107.845 128.346 106.842L128.347 106.841L128.345 106.851ZM120.28 113.797L120.195 113.91C119.54 114.819 119.418 115.95 119.767 116.93L119.772 116.943C120.152 118.028 120.858 118.97 121.794 119.639L121.902 119.715L121.897 119.711C122.97 120.447 124.186 120.948 125.465 121.182C126.745 121.417 128.06 121.38 129.325 121.074L129.341 121.07C130.566 120.808 131.654 120.106 132.397 119.097L132.399 119.095C132.743 118.66 132.971 118.145 133.062 117.599C133.154 117.052 133.105 116.491 132.922 115.969L132.917 115.956C132.526 114.831 131.784 113.862 130.799 113.192L130.804 113.196C129.727 112.457 128.508 111.953 127.224 111.715C125.94 111.477 124.621 111.511 123.351 111.815L123.335 111.819C122.112 112.082 121.027 112.782 120.284 113.789L120.282 113.791L120.28 113.797Z" fill="#EBA956"/>
</g>
<g clip-path="url(#clip4_110_224)">
<path d="M111.146 30.325L111.184 30.3528C111.938 30.896 112.78 31.3051 113.673 31.5619L113.616 31.5437C114.485 31.7946 115.405 31.8191 116.287 31.615L116.294 31.6127C117.143 31.428 117.931 30.9379 118.481 30.1739L118.524 30.1142L118.523 30.1166C119.242 29.1044 119.535 27.8501 119.339 26.6241C119.185 25.3282 118.738 24.0846 118.031 22.9874L117.996 22.9372C117.335 21.891 116.484 20.978 115.487 20.2457L115.482 20.2421L115.443 20.2143C114.667 19.6558 113.825 19.2553 112.955 19.0052L113.012 19.0234C112.142 18.7725 111.223 18.748 110.341 18.9522L110.333 18.9545C109.423 19.1529 108.623 19.6922 108.097 20.4617L108.1 20.458C107.378 21.4694 107.085 22.7245 107.283 23.9505C107.443 25.2386 107.89 26.4742 108.591 27.5663L108.626 27.6165C109.238 28.6027 110.096 29.5432 111.146 30.3161L111.15 30.3188L111.146 30.325ZM125.32 30.43L125.424 30.5065C126.358 31.1811 127.478 31.5487 128.631 31.5587L128.609 31.5579C129.14 31.5668 129.666 31.4469 130.142 31.2085C130.617 30.9701 131.028 30.6201 131.339 30.1886L131.425 30.0636L131.42 30.0698C132.143 29.0418 132.464 27.7843 132.321 26.536L132.322 26.5425C132.213 25.2449 131.832 23.9849 131.204 22.8443C130.577 21.7037 129.716 20.7078 128.679 19.9213L128.669 19.9142L128.568 19.8395C127.592 19.1369 126.466 18.7914 125.348 18.7784L125.37 18.7792C124.812 18.766 124.259 18.8956 123.764 19.1559C123.27 19.4161 122.85 19.7983 122.544 20.2663L122.549 20.26C121.826 21.2881 121.505 22.5455 121.648 23.7938L121.647 23.7874C121.759 25.0892 122.144 26.3527 122.776 27.4961C123.407 28.6396 124.272 29.6376 125.314 30.4256L125.322 30.4318L125.32 30.43ZM119.277 37.7189C118.069 39.607 117.483 41.8263 117.601 44.0644L117.6 44.0371C117.582 46.6601 118.045 49.2639 118.965 51.7198L119 51.8053C119.663 53.8999 120.926 55.7538 122.632 57.1379L122.656 57.157L122.763 57.2374C123.265 57.599 123.829 57.8178 124.402 57.8999L124.381 57.8957C124.913 57.9617 125.453 57.8547 125.92 57.5906L125.934 57.5817C126.367 57.344 126.806 57.0197 127.199 56.6338L127.225 56.6066C127.628 56.1994 127.998 55.7608 128.331 55.2949L128.398 55.2015L128.395 55.2065C129.233 53.8633 129.832 52.3856 130.168 50.8385L130.144 50.9312C130.46 49.4696 131.019 48.0713 131.798 46.7946L131.823 46.7542C132.913 45.4551 134.137 44.4053 135.472 43.5713L135.382 43.6332C136.764 42.7566 137.994 41.6615 139.026 40.3906L139.052 40.3567C140.765 37.9803 140.676 36.1115 138.784 34.7503C137.421 33.8505 135.855 33.3025 134.227 33.1553L134.28 33.161C132.387 32.9042 130.468 32.9115 128.578 33.1827L128.586 33.1813C126.733 33.4427 124.926 33.9665 123.221 34.7371L123.124 34.7847C121.614 35.4044 120.292 36.4085 119.289 37.6972L119.278 37.7122L119.277 37.7189ZM111.832 39.4156L111.873 39.3583C112.402 38.6251 112.64 37.7218 112.542 36.8232L112.543 36.8275C112.46 35.9359 112.153 35.0799 111.648 34.3402L111.626 34.3087C111.108 33.5612 110.465 32.9087 109.725 32.3799L109.684 32.3504L109.687 32.3521C108.615 31.598 107.452 31.084 106.254 30.7976L106.323 30.8171C105.049 30.4858 103.717 30.448 102.427 30.7065L102.419 30.7088C101.195 30.911 100.099 31.5875 99.3688 32.5916L99.3267 32.6501C98.7768 33.4141 98.5638 34.3186 98.6576 35.1852L98.6569 35.1809C98.7409 36.0687 99.0426 36.9244 99.5513 37.6682L99.574 37.6997C100.052 38.4046 100.704 39.0812 101.485 39.6433L101.509 39.6612L101.508 39.6603C102.541 40.3875 103.703 40.9125 104.931 41.2077L104.862 41.1883C106.141 41.5231 107.481 41.5589 108.776 41.2927L108.785 41.2913C110.008 41.0867 111.103 40.4099 111.833 39.4067L111.833 39.4054L111.832 39.4156ZM103.767 46.3615L103.682 46.4742C103.027 47.3839 102.905 48.5141 103.254 49.4948L103.258 49.5073C103.639 50.5928 104.345 51.5343 105.281 52.2036L105.388 52.2794L105.383 52.2758C106.457 53.011 107.673 53.5122 108.952 53.747C110.232 53.9817 111.547 53.9446 112.812 53.6382L112.828 53.6345C114.053 53.3726 115.14 52.6708 115.884 51.6617L115.886 51.6592C116.23 51.2243 116.458 50.7097 116.549 50.1631C116.64 49.6165 116.592 49.0558 116.408 48.5331L116.404 48.5206C116.013 47.3954 115.27 46.4262 114.285 45.7566L114.29 45.7601C113.214 45.0216 111.994 44.5171 110.711 44.2793C109.427 44.0416 108.107 44.0758 106.837 44.3799L106.821 44.3835C105.599 44.6461 104.514 45.3466 103.771 46.3532L103.769 46.3556L103.767 46.3615Z" fill="#EBA956"/>
</g>
<g clip-path="url(#clip5_110_224)">
<path d="M19.0553 8.84262L19.0939 8.87037C19.8475 9.41361 20.6893 9.82265 21.5822 10.0795L21.5255 10.0613C22.3951 10.3122 23.3145 10.3367 24.1966 10.1325L24.2039 10.1302C25.0523 9.9456 25.8411 9.45552 26.391 8.69146L26.434 8.63173L26.4322 8.63422C27.1519 7.62203 27.4451 6.36765 27.2486 5.14166C27.0943 3.84577 26.6472 2.60215 25.941 1.50501L25.9054 1.45482C25.2448 0.408559 24.3938 -0.504412 23.3966 -1.23676L23.3916 -1.24034L23.3531 -1.26808C22.577 -1.82663 21.7344 -2.22715 20.8647 -2.4772L20.9215 -2.45901C20.0518 -2.70987 19.1324 -2.7344 18.2504 -2.53025L18.2431 -2.52796C17.3326 -2.32955 16.5325 -1.79026 16.0067 -1.02074L16.0094 -1.02447C15.2879 -0.0130358 14.9946 1.24204 15.1929 2.46809C15.3528 3.75615 15.7996 4.99177 16.5004 6.08389L16.536 6.13408C17.1478 7.12028 18.0058 8.06079 19.0561 8.83372L19.0598 8.8364L19.0553 8.84262ZM33.2297 8.94761L33.3332 9.02404C34.2674 9.69864 35.3881 10.0663 36.5405 10.0762L36.5185 10.0755C37.0501 10.0844 37.576 9.9645 38.0514 9.72607C38.5267 9.48763 38.9374 9.13771 39.2484 8.70619L39.3345 8.5812L39.3301 8.58742C40.0529 7.55939 40.3735 6.30193 40.2309 5.05362L40.232 5.06004C40.1225 3.76245 39.7416 2.5025 39.1139 1.36187C38.4863 0.221239 37.6259 -0.774602 36.5886 -1.56109L36.5786 -1.56825L36.4775 -1.6429C35.5012 -2.34555 34.3755 -2.69106 33.2578 -2.70404L33.2799 -2.70326C32.7213 -2.71645 32.1686 -2.58679 31.674 -2.32655C31.1795 -2.06631 30.7595 -1.68411 30.4538 -1.21617L30.4583 -1.22239C29.7355 -0.194357 29.4149 1.06311 29.5575 2.31141L29.5564 2.30499C29.6691 3.60676 30.0537 4.87023 30.6853 6.0137C31.317 7.15717 32.1817 8.15516 33.2234 8.94313L33.2321 8.9494L33.2297 8.94761ZM27.187 16.2365C25.9786 18.1246 25.3922 20.3439 25.5105 22.582L25.5093 22.5547C25.4921 25.1777 25.9548 27.7815 26.8746 30.2374L26.9093 30.3229C27.573 32.4175 28.8358 34.2714 30.5418 35.6555L30.5658 35.6746L30.6722 35.755C31.1747 36.1166 31.7384 36.3353 32.3118 36.4174L32.2902 36.4133C32.8227 36.4793 33.3623 36.3723 33.8295 36.1081L33.8434 36.0993C34.2769 35.8616 34.7161 35.5373 35.109 35.1514L35.1342 35.1242C35.5372 34.717 35.9072 34.2783 36.2407 33.8125L36.3078 33.7191L36.3042 33.7241C37.1422 32.3809 37.7421 30.9032 38.0774 29.356L38.054 29.4488C38.3699 27.9872 38.929 26.5889 39.7078 25.3122L39.7331 25.2718C40.8229 23.9727 42.0467 22.9229 43.3813 22.0889L43.2914 22.1508C44.6735 21.2742 45.9041 20.1791 46.9354 18.9082L46.9617 18.8742C48.6746 16.4978 48.5854 14.6291 46.6942 13.2679C45.3302 12.368 43.7645 11.8201 42.1369 11.6729L42.1894 11.6786C40.297 11.4218 38.3781 11.4291 36.4874 11.7003L36.496 11.6989C34.6428 11.9602 32.8361 12.4841 31.1303 13.2547L31.0338 13.3023C29.5235 13.922 28.2014 14.9261 27.1989 16.2148L27.1881 16.2298L27.187 16.2365ZM19.7415 17.9331L19.7827 17.8759C20.3116 17.1426 20.5501 16.2394 20.4518 15.3408L20.4525 15.3451C20.3701 14.4535 20.0623 13.5975 19.5581 12.8578L19.5354 12.8263C19.0176 12.0788 18.3746 11.4263 17.6349 10.8975L17.5939 10.8679L17.5964 10.8697C16.525 10.1156 15.362 9.60158 14.1635 9.31516L14.2325 9.33464C12.959 9.00335 11.6268 8.96554 10.3362 9.22405L10.3289 9.22634C9.10438 9.42862 8.00851 10.105 7.27847 11.1092L7.23637 11.1676C6.68647 11.9317 6.47347 12.8362 6.56723 13.7027L6.56654 13.6985C6.65059 14.5863 6.95231 15.4419 7.46095 16.1858L7.48363 16.2172C7.96178 16.9222 8.6132 17.5988 9.39424 18.1609L9.41911 18.1788L9.41787 18.1779C10.4509 18.9051 11.6123 19.4301 12.8408 19.7253L12.7718 19.7058C14.0509 20.0407 15.3902 20.0764 16.6857 19.8103L16.6943 19.8089C17.9177 19.6043 19.0122 18.9275 19.7423 17.9242L19.7431 17.923L19.7415 17.9331ZM11.6764 24.8791L11.5916 24.9918C10.9369 25.9014 10.8144 27.0317 11.1639 28.0124L11.1681 28.0248C11.5488 29.1103 12.2549 30.0519 13.1902 30.7212L13.2981 30.797L13.2931 30.7934C14.3663 31.5286 15.5823 32.0298 16.862 32.2645C18.1417 32.4992 19.4566 32.4622 20.7213 32.1557L20.7372 32.1521C21.9627 31.8902 23.0501 31.1884 23.7938 30.1793L23.7956 30.1768C24.1392 29.7419 24.3673 29.2273 24.4587 28.6807C24.55 28.1341 24.5017 27.5734 24.3181 27.0507L24.3139 27.0382C23.9229 25.913 23.18 24.9438 22.1951 24.2741L22.2001 24.2777C21.1236 23.5391 19.9041 23.0347 18.6204 22.7969C17.3366 22.5592 16.0171 22.5934 14.747 22.8974L14.7312 22.9011C13.5083 23.1637 12.4234 23.8642 11.6806 24.8707L11.6788 24.8732L11.6764 24.8791Z" fill="#EBA956"/>
</g>
<defs>
<clipPath id="clip0_110_224">
<rect width="39.8623" height="36.7753" fill="white" transform="matrix(-0.203406 0.979094 0.979094 0.203406 191.411 133.591)"/>
</clipPath>
<clipPath id="clip1_110_224">
<rect width="39.8623" height="36.7753" fill="white" transform="matrix(-0.538248 0.842787 0.842787 0.538248 268.872 113.278)"/>
</clipPath>
<clipPath id="clip2_110_224">
<rect width="39.8623" height="36.7753" fill="white" transform="matrix(-0.718797 0.69522 0.69522 0.718797 206.36 47.1899)"/>
</clipPath>
<clipPath id="clip3_110_224">
<rect width="39.8623" height="36.7753" fill="white" transform="matrix(-0.584153 0.811644 0.811644 0.584153 131.889 77.7808)"/>
</clipPath>
<clipPath id="clip4_110_224">
<rect width="39.8623" height="36.7753" fill="white" transform="matrix(-0.584153 0.811644 0.811644 0.584153 115.376 10.3452)"/>
</clipPath>
<clipPath id="clip5_110_224">
<rect width="39.8623" height="36.7753" fill="white" transform="matrix(-0.584153 0.811644 0.811644 0.584153 23.2856 -11.1372)"/>
</clipPath>
</defs>
</svg>
