<svg width="10" height="7" viewBox="0 0 10 7" fill="none" xmlns="http://www.w3.org/2000/svg">
<path fill-rule="evenodd" clip-rule="evenodd" d="M0.315661 1.29308C0.502515 1.10561 0.75591 1.00029 1.02012 1.00029C1.28433 1.00029 1.53773 1.10561 1.72458 1.29308L5.00576 4.58608L8.28693 1.29308C8.37885 1.19757 8.48879 1.12139 8.61036 1.06898C8.73193 1.01657 8.86267 0.988985 8.99498 0.987831C9.12728 0.986677 9.25848 1.01198 9.38094 1.06226C9.5034 1.11254 9.61465 1.18679 9.7082 1.28069C9.80176 1.37458 9.87574 1.48623 9.92584 1.60913C9.97594 1.73202 10.0012 1.8637 10 1.99648C9.99886 2.12926 9.97137 2.26048 9.91915 2.38249C9.86693 2.50449 9.79102 2.61483 9.69585 2.70708L5.71022 6.70708C5.52336 6.89455 5.26997 6.99987 5.00576 6.99987C4.74154 6.99987 4.48815 6.89455 4.3013 6.70708L0.315661 2.70708C0.128863 2.51955 0.0239258 2.26525 0.0239258 2.00008C0.0239258 1.73492 0.128863 1.48061 0.315661 1.29308Z" fill="#0B4C41"/>
</svg>
